<svg xmlns="http://www.w3.org/2000/svg" version="1.1" xmlns:xlink="http://www.w3.org/1999/xlink" xmlns:svgjs="http://svgjs.dev/svgjs" width="2000" height="1500" viewBox="0 0 2000 1500"><rect width="2000" height="1500" fill="#ffffff"></rect><g transform="matrix(0.75,0,0,0.75,249.090909090909,282.7543429356947)"><svg viewBox="0 0 396 247" data-background-color="#ffffff" preserveAspectRatio="xMidYMid meet" height="1247" width="2000" xmlns="http://www.w3.org/2000/svg" xmlns:xlink="http://www.w3.org/1999/xlink"><g id="tight-bounds" transform="matrix(1,0,0,1,0.2400000000000091,-0.09997365579206985)"><svg viewBox="0 0 395.52 247.2" height="247.2" width="395.52"><g><svg viewBox="0 0 395.52 247.2" height="247.2" width="395.52"><g transform="matrix(1,0,0,1,94.61056086922778,0)"><svg viewBox="0 0 206.29887826154442 247.2" height="247.2" width="206.29887826154442"><g><svg viewBox="0 0 206.29887826154442 247.2" height="247.2" width="206.29887826154442"><g><svg viewBox="0 0 206.29887826154442 247.2" height="247.2" width="206.29887826154442"><g id="textblocktransform"><svg viewBox="0 0 206.29887826154442 247.2" height="247.2" width="206.29887826154442" id="textblock"><g><svg viewBox="0 0 206.29887826154442 247.2" height="247.2" width="206.29887826154442"><path d="M205.816 53.02C204.846 27.36 202.082 20.227 202.082 20.227 193.596-6.202 183.005-0.506 173.491 3.292 156.693 3.446 139.963 9.091 123.204 12.119 88.027 12.581 52.55 4.986 17.548 23.717 14.26 29.464-3.411 24.846 0.585 56.304 1.632 69.39 5.453 83.913 5.337 95.922 5.861 98.026 6.588 93.202 6.899 96.23 7.985 104.39 9.76 100.541 11.214 105.365 9.187 118.246 10.642 128.971 12.029 140.21 9.585 143.135 6.452 141.749 5.046 151.449 4.901 158.479 4.115 157.145 3.252 156.837 2.622 156.632 1.351 157.402 1.564 159.608 2.292 167.152-0.831 171.514 1.128 178.904-0.22 186.91 2.059 193.838 1.749 202.511 1.71 204.255 1.923 205.744 2.263 206.154 3.766 208.361 1.574 212.672 1.807 217.342 17.228 249.262 33.958 227.195 49.756 241.872 53.859 231.608 50.775 245.516 52.414 243.36 53.694 240.846 54.625 251.263 56.07 245.362 56.293 243.668 55.954 239.665 56.749 240.435 57.166 240.846 57.535 240.743 57.593 238.382 57.68 234.841 56.914 237.048 56.71 235.201 58.912 225.861 58.369 248.081 60.435 247.158 60.338 244.438 59.736 240.538 60.968 241.051 62.19 237.151 62.229 233.918 63.315 242.693 63.354 244.592 63.548 245.926 63.858 246.85 67.253 237.305 70.628 250.237 74.187 245.926 76.369 241.205 78.464 248.492 80.675 246.696 81.451 245.259 82.237 242.693 82.984 247.004 92.129 247.928 101.876 244.079 110.547 247.158 133.717 241.41 158.477 249.518 182.908 241.923 188.669 238.998 194.653 234.841 200.268 231.506 200.268 231.506 204.817 222.371 204.817 181.316S205.787 145.393 205.932 112.703C206.078 80.013 206.757 78.679 205.787 53.02Z" opacity="1" fill="#ff0000" data-fill-palette-color="tertiary"></path><g transform="matrix(1,0,0,1,55.768319999999996,26.230666666666668)"><svg width="94.76223826154443" viewBox="1.9000000953674316 -42.95000076293945 20.899999618530273 42.95000076293945" height="194.73866666666666" data-palette-color="#ffffff"><path d="M1.9 0L1.9-42.95 13.25-42.95Q18.4-42.95 20.6-39.63 22.8-36.3 22.8-29.9L22.8-29.9Q22.8-23.5 20.85-20.25 18.9-17 13.85-17L13.85-17 10.35-17 10.35 0 1.9 0ZM10.35-24.75L10.85-24.75Q12.4-24.75 13.13-25.33 13.85-25.9 14.08-26.98 14.3-28.05 14.3-30.05L14.3-30.05Q14.3-32.75 13.7-33.95 13.1-35.15 11.3-35.15L11.3-35.15 10.35-35.15 10.35-24.75Z" opacity="1" transform="matrix(1,0,0,1,0,0)" fill="#ffffff" class="undefined-text-0" data-fill-palette-color="quaternary" id="text-0"></path></svg></g></svg></g></svg></g></svg></g><g></g></svg></g></svg></g></svg></g><defs></defs></svg><rect width="395.52" height="247.2" fill="none" stroke="none" visibility="hidden"></rect></g></svg></g></svg>